<svg version="1.1" id="Layer_1" xmlns="http://www.w3.org/2000/svg" xmlns:xlink="http://www.w3.org/1999/xlink" x="0px" y="0px"
	 width="100%" viewBox="0 0 304 240" enable-background="new 0 0 304 240" xml:space="preserve">
<path fill="#000000" opacity="1.000000" stroke="none" 
	d="
M305.000000,128.555832 
	C288.975861,152.643677 269.992035,173.385818 245.819077,189.491867 
	C273.611023,146.666077 273.614655,104.102341 246.226349,61.127914 
	C269.965454,76.859039 288.756592,97.205002 304.738861,120.791946 
	C305.000000,123.370552 305.000000,125.741112 305.000000,128.555832 
z"/>
<path fill="#000000" opacity="1.000000" stroke="none" 
	d="
M137.179077,227.115479 
	C92.595253,216.432449 66.629242,187.740570 58.419910,144.064606 
	C48.991886,93.904816 77.531250,42.404526 128.464600,26.840441 
	C164.523483,15.821652 206.743362,30.174814 230.628738,62.062263 
	C266.508118,109.961960 256.197113,177.776764 207.386612,211.997742 
	C186.451706,226.675186 162.935242,231.630630 137.179077,227.115479 
M145.679062,51.381580 
	C147.194046,44.418911 149.751740,37.780056 152.373016,31.338961 
	C150.730499,29.860430 149.166977,30.268005 147.741241,30.381815 
	C127.970688,31.960037 110.425407,39.178558 96.006622,52.714970 
	C66.649994,80.275055 57.725540,114.021080 67.221962,152.876099 
	C76.180466,189.530228 109.596474,218.214386 146.928223,221.370789 
	C148.697800,221.520416 150.570465,221.740616 151.827545,220.070374 
	C151.770432,219.609848 151.797897,219.255997 151.678528,218.961685 
	C150.865341,216.956482 149.904007,215.003891 149.205826,212.960724 
	C143.901016,197.436737 140.708481,181.513229 145.828873,165.502609 
	C150.537888,150.778290 149.920044,136.654938 146.192673,121.868469 
	C140.385651,98.831963 139.908783,75.476883 145.679062,51.381580 
M239.631729,92.866493 
	C227.603516,61.543232 206.089417,40.542557 173.164993,32.171055 
	C167.830933,30.814796 162.284225,29.883272 156.952667,30.629139 
	C156.231384,32.562565 157.016159,33.568794 157.450043,34.599922 
	C164.398636,51.113525 167.456482,68.482452 167.033752,86.223076 
	C166.717972,99.475258 165.346573,112.765831 161.680481,125.682671 
	C158.340927,137.448959 157.641144,149.419800 161.740906,161.093781 
	C166.700012,175.214752 165.681961,189.204483 162.407471,203.383621 
	C161.025009,209.369873 158.455002,214.917603 156.322784,220.438324 
	C157.777802,221.789764 159.168808,221.699097 160.457840,221.581116 
	C183.283600,219.492249 202.935684,210.437012 218.384109,193.507828 
	C244.846344,164.509109 250.939926,130.839783 239.631729,92.866493 
z"/>
<path fill="#000000" opacity="1.000000" stroke="none" 
	d="
M57.273239,186.732086 
	C36.142265,170.354919 18.359158,151.360611 3.904224,129.253754 
	C2.034184,126.393784 1.686582,124.001617 3.666285,121.043228 
	C18.808681,98.415009 36.942211,78.619095 58.845791,62.361435 
	C59.997845,61.506336 60.911297,60.097416 63.570827,60.556324 
	C35.231495,103.424614 34.950161,146.351059 63.517277,189.508072 
	C60.568954,189.949860 59.263416,187.955109 57.273239,186.732086 
z"/>
</svg>